<svg width="117" height="28" viewBox="0 0 117 28" fill="none" xmlns="http://www.w3.org/2000/svg">
<g clip-path="url(#clip0_2_9)">
<path d="M1.69243 11.6408L8.01655 4.57271L10.6206 4.94472L11.3646 8.66479L7.27253 12.7569L10.6206 16.8489L11.7366 19.825L9.87658 23.1731L1.69243 14.9889V11.6408Z" fill="white"/>
<path d="M97.2818 19.6904L97.8989 19.6657L97.8742 18.2971L99.1989 18.2723V11.9818L96.8951 9.52489L96.8704 9.31053L90.8145 9.33526L90.8556 11.314L89.1442 9.52489L89.1195 9.31053L83.5243 9.33526V6.37547L81.2204 3.88562L81.1958 3.70424L75.1398 3.72897L75.181 5.70766L73.4695 3.88562L73.4449 3.70424L67.3889 3.72897L67.4301 11.9735L66.9528 11.4706L65.1427 9.53313L65.118 9.31877L59.0867 9.34351L59.1279 9.96185L58.6918 9.53313L58.6671 9.31877L52.6359 9.34351L52.677 11.8004L50.5542 9.53313L50.5295 9.31877L39.3227 9.34351L39.3474 10.7121L38.1873 10.7368V7.77704L34.5751 3.89386L34.5504 3.71248L22.0436 3.73722L22.0683 25.4451H22.2L24.5532 27.9185L35.6119 27.8937L35.5872 26.5251L36.879 26.5004L36.8543 25.1565L38.179 25.1318L38.1955 24.1425L40.5405 26.6158H41.7089L43.083 28.0091L52.8416 27.9844V23.0542L52.2574 22.4606L52.8416 22.4358L52.8004 21.3723L53.7714 22.4111C53.8454 22.4523 53.903 22.5183 53.9359 22.5925L54.084 22.7491C54.4872 23.0542 54.8081 23.4582 55.0467 23.7879L57.6962 26.6158H58.8646L59.5887 27.3413L63.5793 27.3166L63.5546 26.3602L64.8464 26.3355L64.8218 25.0576L66.1465 25.0329L66.1218 23.8539L67.356 23.8292L67.3807 24.0435H67.5124L69.8656 26.5169L71.7334 26.4922L71.7581 27.2754L82.1914 27.2507L82.1667 26.5086L83.4914 26.4839L83.4503 25.7996L85.532 27.9927L91.4151 27.9679L91.374 25.9892L93.2582 27.9927H99.1413L99.166 27.9679V21.6773L97.2489 19.6822H97.2818V19.6904Z" fill="#B71458"/>
<path d="M64.8135 9.08792C64.6654 8.89005 64.5091 8.72516 64.3363 8.56027L64.8135 9.08792Z" fill="#FFD509"/>
<path d="M88.1979 6.35074L88.2308 7.95018C88.0992 7.95018 87.9593 7.95842 87.8277 7.96667L86.5276 6.55685L88.2391 8.42012L88.1979 6.35898V6.35074Z" fill="#FFD509"/>
<path d="M50.0276 6.35074L50.0687 8.81586C50.0687 8.81586 50.0193 8.8241 49.9947 8.83235L47.9458 6.55685L50.0687 8.91479L50.0276 6.35898V6.35074Z" fill="#FFD509"/>
<path d="M31.8927 3.44866L30.6174 3.47339L30.5927 2.08831C30.5351 2.05533 30.4857 2.02235 30.4281 1.99762H30.5927L20.8176 2.02235V21.5867L29.342 21.5619L29.3173 20.1356L30.6091 20.1109L30.5845 18.7176L31.9092 18.6928L31.8845 3.44866H31.8927ZM27.3014 19.2699L27.2767 19.2947H24.1747L24.15 4.30609L28.5521 4.28136L28.5768 17.8519L27.285 17.8766L27.3097 19.2699H27.3014Z" fill="#FFD509"/>
<path d="M92.8962 7.83475L89.5473 7.85948L89.572 10.7368L88.2802 10.7533L88.2967 12.1879L86.4453 12.2044L86.4206 10.7368L85.17 10.7533L85.1453 7.83475L81.7964 7.85948L81.8211 11.5943L83.1047 11.5695L83.1211 13.0453L84.3718 13.0206L84.3965 14.4634L85.6719 14.4386L85.6966 15.057L84.3718 15.0735L84.3965 16.4668L83.1047 16.4915L83.1211 17.9178L81.7964 17.9426L81.8211 21.6773L85.17 21.6608L85.1453 18.7753L86.4453 18.7588L86.4206 17.3242L86.4453 17.3077H88.2802L88.2967 18.7753L89.5473 18.7588L89.572 21.6773L92.9209 21.6608L92.8962 17.9178L91.6208 17.9426L91.5961 16.4668L90.3455 16.4915L90.3208 15.057L89.0454 15.0735L89.0207 14.4634L90.3455 14.4386L90.3208 13.0453L91.6208 13.0206L91.5961 11.5943L92.9209 11.5695L92.8962 7.83475Z" fill="#FFD509"/>
<path d="M35.5954 21.744L35.6039 21.7354L35.5954 21.7268V21.744Z" fill="#FFD509"/>
<path d="M77.2298 1.99762L73.8809 2.02235L73.8974 19.2699L69.4953 19.2947L69.4789 1.99762L66.1465 2.02235V20.1274L67.4301 20.1109L67.4548 21.5784L75.9462 21.5619L75.9215 20.1274L77.2462 20.1109L77.2298 1.99762Z" fill="#FFD509"/>
<path d="M82.3643 14.9664L82.2737 14.8674C82.2737 14.8674 82.2654 14.9334 82.2572 14.9664H82.3643Z" fill="#FFD509"/>
<path d="M57.8278 7.85948L57.8525 16.4668L56.5278 16.4915L56.5525 17.9178L55.993 17.9426L55.9765 16.4668L54.7258 16.4915L54.7011 7.83475L51.4017 7.85948V17.3242L52.6523 17.3077L52.677 18.7753L53.9524 18.7588L53.9771 20.2263L55.2277 20.2098L55.2524 21.6773L57.3259 21.6608L57.3012 20.2263L58.6013 20.2098L58.5766 18.7753L59.9013 18.7588L59.8766 17.3242L61.1685 17.3077L61.152 7.83475L57.8278 7.85948Z" fill="#FFD509"/>
<path d="M46.5635 7.83475L38.0638 7.85948L38.0885 9.28579L36.8132 9.31052V20.2345L38.0638 20.2098L38.0885 21.6856L46.5882 21.6608L46.5635 19.3771L40.1373 19.4018L40.1126 17.3325L45.3128 17.3077L45.2882 15.9144L46.58 15.8897L46.5553 7.83475H46.5635ZM43.2476 15.0735H40.1456L40.1209 10.168L43.2476 10.1432L43.2723 15.0487L43.2476 15.0735Z" fill="#FFD509"/>
<path d="M28.5439 4.28136L24.1418 4.30609L24.1665 19.2947H27.2767L27.3014 19.2699L27.2767 17.8766L28.5686 17.8519L28.5439 4.28136Z" fill="#E6216A"/>
<path d="M40.1126 10.1762L40.1373 15.0735H43.2476L43.2723 15.057L43.2476 10.1515L40.1126 10.1762Z" fill="#E6216A"/>
<path d="M94.6652 17.1181L95.2824 17.0934L95.2577 15.6671L96.5824 15.6423V9.09617L94.2785 6.54036L94.2538 6.31776L88.1979 6.34249L88.2391 8.40363L86.5276 6.54036L86.5029 6.31776L80.9078 6.34249V3.25903L78.6039 0.670246L78.5792 0.480621L72.5233 0.505355L72.5644 2.56649L70.853 0.670246L70.8283 0.480621L64.7724 0.505355L64.8135 9.07968L64.3363 8.55203L62.5261 6.54036L62.5014 6.31776L56.4702 6.34249L56.5113 6.98556L56.0752 6.54036L56.0506 6.31776L50.0193 6.34249L50.0605 8.8983L47.9376 6.54036L47.9129 6.31776L36.7062 6.34249L36.7309 7.7688L35.5707 7.79353V4.71007L31.975 0.67849L31.9503 0.488866L19.4436 0.5136L19.4682 23.0872H19.5999L21.9531 25.6595L33.0118 25.6347L32.9871 24.2084L34.2789 24.1837L34.2542 22.7903L35.5789 22.7656L35.5954 21.735L37.9404 24.3073H39.1088L40.4829 25.7584L50.2415 25.7337V20.6055L49.6573 19.9872L50.2415 19.9625L50.2004 18.8577L51.1713 19.9377C51.2453 19.9872 51.3029 20.0449 51.3358 20.1191L51.4839 20.284C51.8871 20.5973 52.208 21.026 52.4466 21.364L55.0961 24.3073H56.2645L56.9886 25.0658L60.9792 25.0411L60.9545 24.0435L62.2464 24.0188L62.2217 22.6914L63.5464 22.6667L63.5217 21.4382L64.7559 21.4135L64.7806 21.6361H64.9123L67.2655 24.2084L69.1333 24.1837L69.158 24.9999L79.5913 24.9752L79.5666 24.2084L80.8913 24.1837L80.8502 23.4746L82.9319 25.7584L88.815 25.7337L88.7739 23.6725L90.6581 25.7584H96.5413L96.566 25.7337V19.1875L94.6488 17.1181H94.6652ZM30.6174 20.1109L29.3256 20.1356L29.3502 21.5619L20.8259 21.5866V2.02235L30.6009 1.99762V2.08831L30.6256 3.47339L31.901 3.44866L31.9256 18.6928L30.6009 18.7175L30.6256 20.1109H30.6174ZM45.3128 17.3077L40.1126 17.3325L40.1373 19.4018L46.5635 19.3771L46.5882 21.6608L38.0885 21.6856L38.0638 20.2098L36.8132 20.2345V9.31053L38.0885 9.28579L38.0638 7.85949L46.5635 7.83475L46.5882 15.8897L45.2964 15.9144L45.3211 17.3077H45.3128ZM59.8767 17.3242L59.9013 18.7505L58.5766 18.7753L58.6013 20.2016L57.3095 20.2263L57.3342 21.6526L55.2607 21.6773L55.236 20.2016L53.9853 20.2263L53.9606 18.7505L52.6853 18.7753L52.6606 17.2995L51.4099 17.3242V7.85124L54.7094 7.82651L54.7341 16.4915L55.9847 16.4668L56.0094 17.9426L56.5607 17.9178L56.536 16.4915L57.8608 16.4668L57.8361 7.85124L61.152 7.82651L61.1767 17.2995L59.8849 17.3242H59.8767ZM75.9462 21.5619L67.4465 21.5866L67.4219 20.1109L66.1465 20.1356V2.02235L69.4707 1.99762L69.4954 19.2947L73.8974 19.2699L73.8727 2.01411L77.2216 1.98937L77.2463 20.1026L75.9215 20.1274L75.9462 21.5537V21.5619ZM81.1464 16.4833L80.9078 16.508V13.4328L82.2654 14.8673L82.3559 14.9663H82.249L81.7471 14.991L81.7717 15.7578L81.13 15.7825L81.1546 16.4833H81.1464ZM91.6208 13.0206L90.329 13.0453L90.3537 14.4386L89.029 14.4634L89.0537 15.0817L90.329 15.057L90.3537 16.4998L91.6044 16.475L91.6291 17.9508L92.9044 17.9261L92.9291 21.6608L89.5803 21.6856L89.5556 18.7588L88.3049 18.7835L88.2802 17.3077H86.4453L86.4206 17.3325L86.4453 18.7588L85.1535 18.7835L85.1782 21.6608L81.8293 21.6856L81.8047 17.9508L83.1294 17.9261L83.1047 16.4998L84.3965 16.475L84.3718 15.0817L85.6966 15.057L85.6719 14.4386L84.3965 14.4634L84.3718 13.0206L83.1212 13.0453L83.0965 11.5695L81.8211 11.5943L81.7964 7.85949L85.1453 7.83475L85.17 10.7616L86.4206 10.7368L86.4453 12.2126L88.3049 12.1879L88.2802 10.7616L89.572 10.7368L89.5473 7.85949L92.8962 7.83475L92.9209 11.5695L91.5962 11.5943L91.6208 13.0206Z" fill="#E6216A"/>
<path d="M113.295 11.2688L106.97 4.2007L104.366 4.57271L103.622 8.29278L107.714 12.3849L104.366 16.4769L103.25 19.453L105.11 22.8011L113.295 14.6169V11.2688Z" fill="white"/>
<path d="M0.724515 15.5681H0.576408V10.4153H1.99165V9.09617H3.37398V7.61215H4.64111V6.26005H5.62026V4.77603H6.86271V3.39095H11.4787V3.58057L13.7332 6.09515V12.4682H12.4908V13.8533H11.2236V15.2713H10.6477L13.7332 18.7175V25.0906H9.2571L0.724515 15.5681ZM10.1869 21.1332V17.4974H8.94443V16.0793H7.6773V14.6612H6.41016V13.2762H5.14303V12.699H6.41016V11.314H7.6773V9.89589H8.94443V8.51081H10.1869V4.84198H8.16276V6.22707H6.92031V7.64513H5.62026V9.06319H4.37781V10.4813H3.11068V11.8663H1.86823V14.1171H3.11068V15.5022H4.37781V16.9202H5.62026V18.3383H6.92031V19.7564H8.16276V21.1414H10.1869V21.1332Z" fill="#E6216A"/>
<path d="M103.379 22.7491H103.231V16.0876H104.671V14.7767H105.609V13.202H106.374L103.371 9.88766H103.223V3.18484H107.929V3.38271L116.643 13.0948V18.1487H115.375V19.5915H114.084V21.0343H112.817V22.4441H111.525V23.8869H110.233V25.2967H105.699L103.371 22.7327V22.7491H103.379ZM106.621 21.2651V19.8553H107.888V18.4125H109.18V16.9697H110.471V15.5269H111.763V14.1171H113.03V11.8169H111.763V10.4071H110.471V8.96427H109.18V7.52147H107.888V6.07868H106.621V4.66886H104.564V8.41188H105.831V9.8217H107.123V11.2645H108.39V12.6743H109.715V13.2679H108.39V14.6777H107.123V16.1205H105.831V17.5633H104.564V21.2734H106.621V21.2651Z" fill="#E6216A"/>
</g>
<defs>
<clipPath id="clip0_2_9">
<rect width="116.066" height="27.5285" fill="white" transform="translate(0.576408 0.480621)"/>
</clipPath>
</defs>
</svg>
